<svg width="32" height="32" viewBox="0 0 32 32" fill="none" xmlns="http://www.w3.org/2000/svg">
  <defs>
    <linearGradient id="heartGradient" x1="0%" y1="0%" x2="100%" y2="100%">
      <stop offset="0%" style="stop-color:#4F46E5;stop-opacity:1" />
      <stop offset="50%" style="stop-color:#7C3AED;stop-opacity:1" />
      <stop offset="100%" style="stop-color:#EC4899;stop-opacity:1" />
    </linearGradient>
  </defs>
  
  <!-- Background circle -->
  <circle cx="16" cy="16" r="15" fill="url(#heartGradient)" stroke="white" stroke-width="2"/>
  
  <!-- Heart icon -->
  <path d="M16 26.5c-0.5 0-1-0.2-1.4-0.6-3.8-3.4-7.6-6.8-7.6-11.4 0-3.3 2.7-6 6-6 1.6 0 3.1 0.7 4.1 1.8C18.1 8.7 19.6 8 21.2 8c3.3 0 6 2.7 6 6 0 4.6-3.8 8-7.6 11.4-0.4 0.4-0.9 0.6-1.4 0.6h-2.2z" fill="white"/>
  
  <!-- Small sparkle -->
  <circle cx="23" cy="9" r="1.5" fill="white" opacity="0.8"/>
  <circle cx="9" cy="23" r="1" fill="white" opacity="0.6"/>
</svg>

